<?xml version="1.0" encoding="UTF-8" standalone="no"?>
<!-- Created with Inkscape (http://www.inkscape.org/) -->

<svg
   width="153.47539mm"
   height="128.74641mm"
   viewBox="0 0 153.47539 128.74641"
   version="1.1"
   id="svg5"
   xml:space="preserve"
   xmlns="http://www.w3.org/2000/svg"
   xmlns:svg="http://www.w3.org/2000/svg"><defs
     id="defs2" /><path
     id="path234"
     style="fill:#00a608;fill-opacity:0.530864;stroke:none;stroke-width:3.96899;stroke-linecap:round"
     d="M 76.737952 5.9691447 A 52.592987 52.592987 0 0 0 24.144779 58.562317 A 52.592987 52.592987 0 0 0 50.669259 104.19571 L 81.77227 104.19571 A 49.126015 49.126015 0 0 1 50.756075 58.562317 A 49.126015 49.126015 0 0 1 95.930062 9.5988973 A 52.592987 52.592987 0 0 0 76.737952 5.9691447 z M 101.83513 27.27172 C 99.822235 27.271612 97.955694 28.323648 96.913464 30.045711 L 80.913407 49.974727 C 78.925359 52.452005 79.32142 56.071766 81.798108 58.060539 C 84.275165 60.050471 87.896442 59.655278 89.885986 57.177905 L 96.037032 49.515841 L 95.964168 83.927694 C 95.956958 87.105008 98.527075 89.686433 101.70439 89.693233 C 104.8823 89.700442 107.46393 87.129386 107.46993 83.951465 L 107.54124 49.428507 L 113.76308 57.177905 C 115.75247 59.653948 119.37216 60.04907 121.84889 58.060539 C 124.32558 56.071766 124.72163 52.452005 122.73359 49.974727 L 106.76713 30.087569 C 105.73335 28.346288 103.86016 27.27682 101.83513 27.27172 z M 2.5414469 109.49668 C 1.4502271 109.49468 0.56437674 110.37846 0.56327311 111.46968 C 0.56237229 112.5601 1.4453449 113.44492 2.5357625 113.44631 L 150.93601 113.67058 C 152.02643 113.67148 152.91124 112.78851 152.91263 111.69809 C 152.91463 110.60767 152.03263 109.72192 150.94221 109.7194 L 2.5414469 109.49668 z M 24.752494 117.00836 C 23.661876 117.00636 22.776044 117.88868 22.773804 118.9793 C 22.771804 120.06992 23.654126 120.95575 24.744743 120.95799 L 128.72341 121.1802 C 129.81443 121.1832 130.70112 120.3008 130.70365 119.20978 C 130.70565 118.11936 129.82365 117.23361 128.73323 117.23109 L 24.752494 117.00836 z M 42.180371 124.57276 C 41.089148 124.56876 40.201442 125.4504 40.198063 126.54163 C 40.194063 127.63265 41.075394 128.52028 42.166418 128.52394 L 111.2976 128.74666 C 112.38782 128.74966 113.27417 127.86852 113.27784 126.77831 C 113.28084 125.68769 112.39959 124.80092 111.30897 124.79755 L 42.180371 124.57276 z " /></svg>
