<?xml version="1.0" encoding="UTF-8" standalone="no"?>
<!-- Created with Inkscape (http://www.inkscape.org/) -->

<svg
   width="210mm"
   height="297mm"
   viewBox="0 0 210 297"
   version="1.1"
   id="svg5"
   inkscape:version="1.2.2 (732a01da63, 2022-12-09)"
   sodipodi:docname="sun.svg"
   xmlns:inkscape="http://www.inkscape.org/namespaces/inkscape"
   xmlns:sodipodi="http://sodipodi.sourceforge.net/DTD/sodipodi-0.dtd"
   xmlns="http://www.w3.org/2000/svg"
   xmlns:svg="http://www.w3.org/2000/svg">
  <sodipodi:namedview
     id="namedview7"
     pagecolor="#505050"
     bordercolor="#eeeeee"
     borderopacity="1"
     inkscape:showpageshadow="0"
     inkscape:pageopacity="0"
     inkscape:pagecheckerboard="0"
     inkscape:deskcolor="#505050"
     inkscape:document-units="mm"
     showgrid="false"
     inkscape:zoom="2.448064"
     inkscape:cx="355.17863"
     inkscape:cy="538.58887"
     inkscape:window-width="3717"
     inkscape:window-height="2126"
     inkscape:window-x="2992"
     inkscape:window-y="-11"
     inkscape:window-maximized="1"
     inkscape:current-layer="layer1" />
  <defs
     id="defs2" />
  <g
     inkscape:label="Warstwa 1"
     inkscape:groupmode="layer"
     id="layer1">
    <path
       id="path234"
       style="fill:#00a608;stroke:none;stroke-width:3.96899;stroke-linecap:round;fill-opacity:0.53086418"
       d="M 88.624565 106.56559 A 49.391922 49.391922 0 0 0 39.232747 155.95741 A 49.391922 49.391922 0 0 0 47.609497 183.41568 L 129.63963 183.41568 A 49.391922 49.391922 0 0 0 138.01638 155.95741 A 49.391922 49.391922 0 0 0 88.624565 106.56559 z " />
    <path
       style="color:#000000;fill:#00a608;stroke-linecap:round;-inkscape-stroke:none;fill-opacity:0.53086418;stroke:none"
       d="M 127.12305,89.576172 A 2.825,2.825 0 0 0 123.25,90.556641 l -8.28516,13.906249 a 2.825,2.825 0 0 0 0.98047,3.87305 2.825,2.825 0 0 0 3.87305,-0.98047 l 8.28516,-13.906251 a 2.825,2.825 0 0 0 -0.98047,-3.873047 z"
       id="path2796" />
    <path
       style="color:#000000;fill:#00a608;stroke-linecap:round;-inkscape-stroke:none;fill-opacity:0.53086418;stroke:none"
       d="m 151.3125,116.63281 -14.12891,7.89844 a 2.825,2.825 0 0 0 -1.08789,3.84375 2.825,2.825 0 0 0 3.84375,1.08789 l 14.12891,-7.89844 a 2.825,2.825 0 0 0 1.08789,-3.8457 2.825,2.825 0 0 0 -3.84375,-1.08594 z"
       id="path2808" />
    <path
       style="color:#000000;fill:#00a608;stroke-linecap:round;-inkscape-stroke:none;fill-opacity:0.53086418;stroke:none"
       d="m 146.39062,153.02148 a 2.825,2.825 0 0 0 -2.86328,2.78516 2.825,2.825 0 0 0 2.78516,2.86328 l 16.18555,0.22461 a 2.825,2.825 0 0 0 2.86328,-2.78711 2.825,2.825 0 0 0 -2.78516,-2.86328 z"
       id="path2820" />
    <path
       style="color:#000000;fill:#00a608;stroke-linecap:round;-inkscape-stroke:none;fill-opacity:0.53086418;stroke:none"
       d="m 88.775391,79.220703 a 2.825,2.825 0 0 0 -2.863282,2.785156 L 85.6875,98.191406 a 2.825,2.825 0 0 0 2.787109,2.863284 2.825,2.825 0 0 0 2.863282,-2.785159 l 0.222656,-16.185547 a 2.825,2.825 0 0 0 -2.785156,-2.863281 z"
       id="path2784" />
    <path
       style="color:#000000;fill:#00a608;stroke-linecap:round;-inkscape-stroke:none;fill-opacity:0.53086418;stroke:none"
       d="m 52.533203,89.173828 a 2.825,2.825 0 0 0 -2.146484,0.251953 2.825,2.825 0 0 0 -1.087891,3.84375 l 7.900391,14.128909 a 2.825,2.825 0 0 0 3.84375,1.08789 2.825,2.825 0 0 0 1.08789,-3.8457 l -7.90039,-14.128911 a 2.825,2.825 0 0 0 -1.697266,-1.337891 z"
       id="path2772" />
    <path
       style="color:#000000;fill:#00a608;stroke-linecap:round;-inkscape-stroke:none;fill-opacity:0.53086418;stroke:none"
       d="m 23.976562,116.16602 a 2.825,2.825 0 0 0 -1.734375,1.29296 2.825,2.825 0 0 0 0.982422,3.87305 l 13.904297,8.28516 a 2.825,2.825 0 0 0 3.873047,-0.98047 2.825,2.825 0 0 0 -0.980469,-3.87305 l -13.90625,-8.28515 a 2.825,2.825 0 0 0 -2.138672,-0.3125 z"
       id="path2760" />
    <path
       style="fill:#00a608;stroke:none;stroke-width:5.65;stroke-linecap:round;stroke-dasharray:none;fill-opacity:0.53086418"
       d="m 14.711722,155.84578 16.185739,0.22326"
       id="path1713"
       inkscape:transform-center-x="-2.3164063e-06"
       inkscape:transform-center-y="-65.819859" />
    <path
       style="color:#000000;fill:#00a608;stroke-linecap:round;-inkscape-stroke:none;fill-opacity:0.53086418;stroke:none"
       d="m 14.75,153.02148 a 2.825,2.825 0 0 0 -2.863281,2.78516 2.825,2.825 0 0 0 2.785156,2.86328 l 16.1875,0.22461 a 2.825,2.825 0 0 0 2.863281,-2.78711 2.825,2.825 0 0 0 -2.787109,-2.86328 z"
       id="path2748" />
    <path
       style="color:#000000;fill:#00a608;stroke-linecap:round;-inkscape-stroke:none;fill-opacity:0.53086418;stroke:none"
       d="m 70.089844,86.146484 a 2.825,2.825 0 0 0 -2.0625,3.421875 l 2.80664,11.335941 a 2.825,2.825 0 0 0 3.419922,2.06445 2.825,2.825 0 0 0 2.064453,-3.421875 l -2.80664,-11.335938 a 2.825,2.825 0 0 0 -3.421875,-2.064453 z"
       id="path2778" />
    <path
       style="color:#000000;fill:#00a608;stroke-linecap:round;-inkscape-stroke:none;fill-opacity:0.53086418;stroke:none"
       d="m 39.681641,103.97852 a 2.825,2.825 0 0 0 -2.013672,0.78906 2.825,2.825 0 0 0 -0.07617,3.99414 l 8.099609,8.41406 a 2.825,2.825 0 0 0 3.994141,0.0762 2.825,2.825 0 0 0 0.07617,-3.99414 l -8.09961,-8.41406 a 2.825,2.825 0 0 0 -1.980468,-0.86523 z"
       id="path2766" />
    <path
       style="color:#000000;fill:#00a608;stroke-linecap:round;-inkscape-stroke:none;fill-opacity:0.53086418;stroke:none"
       d="m 22.398437,135.17187 a 2.825,2.825 0 0 0 -3.498046,1.93165 2.825,2.825 0 0 0 1.93164,3.49804 l 11.220703,3.23633 a 2.825,2.825 0 0 0 3.498047,-1.92969 2.825,2.825 0 0 0 -1.93164,-3.49804 z"
       id="path2754" />
    <path
       style="color:#000000;fill:#00a608;stroke-linecap:round;-inkscape-stroke:none;fill-opacity:0.53086418;stroke:none"
       d="m 107.47852,86.232422 a 2.825,2.825 0 0 0 -3.49805,1.93164 l -3.23633,11.220704 a 2.825,2.825 0 0 0 1.92969,3.498044 2.825,2.825 0 0 0 3.49805,-1.93164 l 3.23828,-11.220701 a 2.825,2.825 0 0 0 -1.93164,-3.498047 z"
       id="path2790" />
    <path
       style="color:#000000;fill:#00a608;stroke-linecap:round;-inkscape-stroke:none;fill-opacity:0.53086418;stroke:none"
       d="m 135.82031,104.92578 -8.41406,8.09766 a 2.825,2.825 0 0 0 -0.0762,3.99414 2.825,2.825 0 0 0 3.99414,0.0781 l 8.41406,-8.09961 a 2.825,2.825 0 0 0 0.0762,-3.99414 2.825,2.825 0 0 0 -3.99414,-0.0762 z"
       id="path2802" />
    <path
       style="color:#000000;fill:#00a608;stroke-linecap:round;-inkscape-stroke:none;fill-opacity:0.53086418;stroke:none"
       d="m 155.01367,135.35937 -11.33789,2.80665 a 2.825,2.825 0 0 0 -2.0625,3.42187 2.825,2.825 0 0 0 3.42188,2.0625 l 11.33593,-2.80664 a 2.825,2.825 0 0 0 2.0625,-3.41992 2.825,2.825 0 0 0 -3.41992,-2.06446 z"
       id="path2814" />
    <path
       style="color:#000000;fill:#00a608;stroke-linecap:round;-inkscape-stroke:none;fill-opacity:0.53086418;stroke:none"
       d="m 145.19727,168.07617 a 2.825,2.825 0 0 0 -3.49805,1.93164 2.825,2.825 0 0 0 1.93164,3.4961 l 11.2207,3.23828 a 2.825,2.825 0 0 0 3.49805,-1.93164 2.825,2.825 0 0 0 -1.93164,-3.4961 z"
       id="path2826" />
    <path
       style="fill:#00a608;stroke:none;stroke-width:5.65;stroke-linecap:round;stroke-dasharray:none;fill-opacity:0.53086418"
       d="m 21.556672,173.8126 11.33668,-2.80653"
       id="path1945"
       inkscape:transform-center-x="-61.399439"
       inkscape:transform-center-y="-16.451927"
       sodipodi:nodetypes="cc" />
    <path
       style="color:#000000;fill:#00a608;stroke-linecap:round;-inkscape-stroke:none;fill-opacity:0.53086418;stroke:none"
       d="m 32.214844,168.26367 -11.337891,2.80664 a 2.825,2.825 0 0 0 -2.0625,3.42188 2.825,2.825 0 0 0 3.421875,2.0625 l 11.335938,-2.80664 a 2.825,2.825 0 0 0 2.0625,-3.41993 2.825,2.825 0 0 0 -3.419922,-2.06445 z"
       id="path2742" />
    <path
       style="color:#000000;fill:#00a608;stroke-linecap:round;-inkscape-stroke:none;fill-opacity:0.53086418;stroke:none"
       d="m 14.427734,188.7168 a 1.975,1.975 0 0 0 -1.978515,1.97265 1.975,1.975 0 0 0 1.972656,1.97657 l 148.400395,0.2246 a 1.975,1.975 0 0 0 1.97656,-1.97265 1.975,1.975 0 0 0 -1.97071,-1.97852 z"
       id="path2832" />
    <path
       style="color:#000000;fill:#00a608;stroke-linecap:round;-inkscape-stroke:none;fill-opacity:0.53086418;stroke:none"
       d="m 36.638672,196.22852 a 1.975,1.975 0 0 0 -1.978516,1.9707 1.975,1.975 0 0 0 1.970703,1.97851 l 103.978511,0.22266 a 1.975,1.975 0 0 0 1.98047,-1.9707 1.975,1.975 0 0 0 -1.9707,-1.97852 z"
       id="path2838" />
    <path
       style="color:#000000;fill:#00a608;stroke-linecap:round;-inkscape-stroke:none;fill-opacity:0.53086418;stroke:none"
       d="m 54.066406,203.79297 a 1.975,1.975 0 0 0 -1.982422,1.96875 1.975,1.975 0 0 0 1.96875,1.98242 l 69.130856,0.22266 a 1.975,1.975 0 0 0 1.98047,-1.96875 1.975,1.975 0 0 0 -1.96875,-1.98047 z"
       id="path2844" />
    <path
       id="path2720"
       style="color:#000000;fill:#00a608;stroke-linecap:round;-inkscape-stroke:none;fill-opacity:0.53086418;stroke:none"
       d="M 88.86331 115.10564 A 5.7525001 5.7525001 0 0 0 83.941646 117.87963 L 67.941589 137.80864 A 5.7525001 5.7525001 0 0 0 68.82629 145.89445 A 5.7525001 5.7525001 0 0 0 76.914168 145.01182 L 83.065214 137.34976 L 82.99235 171.76161 A 5.7525001 5.7525001 0 0 0 88.732568 177.52715 A 5.7525001 5.7525001 0 0 0 94.498108 171.78538 L 94.569421 137.26242 L 100.79126 145.01182 A 5.7525001 5.7525001 0 0 0 108.87708 145.89445 A 5.7525001 5.7525001 0 0 0 109.76178 137.80864 L 93.795308 117.92148 A 5.7525001 5.7525001 0 0 0 88.86331 115.10564 z " />
  </g>
</svg>
