<?xml version="1.0" encoding="UTF-8" standalone="no"?>
<!-- Created with Inkscape (http://www.inkscape.org/) -->

<svg
   width="153.53372mm"
   height="153.68933mm"
   viewBox="0 0 153.53372 153.68933"
   version="1.1"
   id="svg5"
   xmlns="http://www.w3.org/2000/svg"
   xmlns:svg="http://www.w3.org/2000/svg">
  <defs
     id="defs2" />
  <g
     id="layer1"
     transform="translate(-11.886417,-79.220222)">
    <path
       id="path234"
       style="fill:#00a608;fill-opacity:0.530864;stroke:none;stroke-width:3.96899;stroke-linecap:round"
       d="m 88.77546,79.220487 a 2.825,2.825 0 0 0 -2.863391,2.78536 l -0.224793,16.185576 a 2.825,2.825 0 0 0 2.787427,2.863387 2.825,2.825 0 0 0 2.863391,-2.785356 L 91.560303,82.083879 A 2.825,2.825 0 0 0 88.77546,79.220487 Z m -18.058329,6.84351 a 2.825,2.825 0 0 0 -0.627352,0.08268 2.825,2.825 0 0 0 -2.062407,3.421496 l 2.806547,11.336267 a 2.825,2.825 0 0 0 3.419947,2.06447 2.825,2.825 0 0 0 2.064473,-3.422018 L 73.511792,88.211153 a 2.825,2.825 0 0 0 -2.794661,-2.147156 z m 35.820549,0.06201 a 2.825,2.825 0 0 0 -2.55746,2.038119 l -3.23598,11.220503 a 2.825,2.825 0 0 0 1.9296,3.497981 2.825,2.825 0 0 0 3.49797,-1.93167 l 3.23857,-11.220502 a 2.825,2.825 0 0 0 -1.93167,-3.497977 2.825,2.825 0 0 0 -0.94103,-0.106454 z M 51.803556,89.06743 a 2.825,2.825 0 0 0 -1.416967,0.358117 2.825,2.825 0 0 0 -1.087789,3.84421 l 7.900293,14.128853 a 2.825,2.825 0 0 0 3.843693,1.08779 2.825,2.825 0 0 0 1.088305,-3.84576 L 54.230282,90.511788 a 2.825,2.825 0 0 0 -1.697054,-1.337903 2.825,2.825 0 0 0 -0.729672,-0.106453 z m 73.912284,0.110587 a 2.825,2.825 0 0 0 -2.466,1.378727 l -8.28476,13.906126 a 2.825,2.825 0 0 0 0.9803,3.87315 2.825,2.825 0 0 0 3.87315,-0.9803 l 8.28476,-13.906646 a 2.825,2.825 0 0 0 -0.9803,-3.873148 2.825,2.825 0 0 0 -1.40715,-0.397909 z M 39.681816,103.97867 a 2.825,2.825 0 0 0 -2.013831,0.7891 2.825,2.825 0 0 0 -0.07596,3.99407 l 8.099247,8.41395 a 2.825,2.825 0 0 0 3.994071,0.076 2.825,2.825 0 0 0 0.07648,-3.99407 l -8.099764,-8.41396 a 2.825,2.825 0 0 0 -1.98024,-0.86506 z m 97.980584,0.15968 a 2.825,2.825 0 0 0 -1.84227,0.78755 l -8.41395,8.09769 a 2.825,2.825 0 0 0 -0.076,3.99407 2.825,2.825 0 0 0 3.99407,0.078 l 8.41396,-8.09976 a 2.825,2.825 0 0 0 0.076,-3.99407 2.825,2.825 0 0 0 -2.1518,-0.86351 z m -49.037835,2.42724 a 49.391922,49.391922 0 0 0 -49.391818,49.39182 49.391922,49.391922 0 0 0 0.557589,7.21041 49.391922,49.391922 0 0 0 0.02946,0.17777 49.391922,49.391922 0 0 0 0.51263,2.83806 49.391922,49.391922 0 0 0 0.418579,1.78284 49.391922,49.391922 0 0 0 0.28267,1.10949 49.391922,49.391922 0 0 0 47.649288,36.48822 49.391922,49.391922 0 0 0 49.391817,-49.39182 49.391922,49.391922 0 0 0 -0.55811,-7.21351 49.391922,49.391922 0 0 0 -0.0264,-0.16072 49.391922,49.391922 0 0 0 -0.51418,-2.84944 49.391922,49.391922 0 0 0 -0.42272,-1.80092 A 49.391922,49.391922 0 0 0 136.2754,143.06 49.391922,49.391922 0 0 0 88.624565,106.56559 Z m -63.915996,9.51466 a 2.825,2.825 0 0 0 -0.732255,0.0858 2.825,2.825 0 0 0 -1.734261,1.29294 2.825,2.825 0 0 0 0.982369,3.87315 L 37.129,129.61741 a 2.825,2.825 0 0 0 3.873148,-0.98082 2.825,2.825 0 0 0 -0.980818,-3.87315 l -13.906128,-8.28476 a 2.825,2.825 0 0 0 -1.406633,-0.39843 z m 128.021131,0.19379 a 2.825,2.825 0 0 0 -1.41697,0.35863 l -14.12937,7.89875 a 2.825,2.825 0 0 0 -1.08779,3.84369 2.825,2.825 0 0 0 3.84369,1.08779 l 14.12886,-7.89823 a 2.825,2.825 0 0 0 1.0883,-3.84576 2.825,2.825 0 0 0 -2.42672,-1.44487 z m -131.272095,18.7911 a 2.825,2.825 0 0 0 -2.557467,2.03864 2.825,2.825 0 0 0 -0.09818,1.01234 2.825,2.825 0 0 0 2.13372,2.94349 l 10.475846,2.59312 0.641305,0.185 a 2.825,2.825 0 0 0 0.795817,0.10697 2.825,2.825 0 0 0 0.144177,0 2.825,2.825 0 0 0 2.700611,-2.14302 2.825,2.825 0 0 0 -2.062407,-3.41995 L 32.85433,138.1895 22.398638,135.17211 a 2.825,2.825 0 0 0 -0.941028,-0.10697 z m 134.183025,0.21239 a 2.825,2.825 0 0 0 -0.0548,0.004 2.825,2.825 0 0 0 -0.14573,0.0109 2.825,2.825 0 0 0 -0.17621,0.0196 2.825,2.825 0 0 0 -0.12919,0.0243 2.825,2.825 0 0 0 -0.12093,0.0227 l -11.33781,2.80706 a 2.825,2.825 0 0 0 -2.06292,3.4215 2.825,2.825 0 0 0 0.0873,0.28319 2.825,2.825 0 0 0 0.0574,0.25114 2.825,2.825 0 0 0 3.49797,1.93167 l 11.22102,-3.23805 a 2.825,2.825 0 0 0 0.002,-5.1e-4 2.825,2.825 0 0 0 0.10439,-0.0326 2.825,2.825 0 0 0 0.002,-5.2e-4 2.825,2.825 0 0 0 0.006,-0.002 2.825,2.825 0 0 0 0.20153,-0.0765 2.825,2.825 0 0 0 0.0997,-0.0439 2.825,2.825 0 0 0 1.51722,-3.34036 2.825,2.825 0 0 0 -0.0574,-0.1633 2.825,2.825 0 0 0 -0.0186,-0.0532 2.825,2.825 0 0 0 -0.0992,-0.22789 2.825,2.825 0 0 0 -0.0315,-0.0662 2.825,2.825 0 0 0 -0.11782,-0.20464 2.825,2.825 0 0 0 -0.0455,-0.0718 2.825,2.825 0 0 0 -0.13695,-0.18551 2.825,2.825 0 0 0 -0.0527,-0.0661 2.825,2.825 0 0 0 -0.15709,-0.1695 2.825,2.825 0 0 0 -0.062,-0.0615 2.825,2.825 0 0 0 -0.17053,-0.1478 2.825,2.825 0 0 0 -0.0729,-0.0579 2.825,2.825 0 0 0 -0.17518,-0.11988 2.825,2.825 0 0 0 -0.0941,-0.0589 2.825,2.825 0 0 0 -0.18293,-0.0966 2.825,2.825 0 0 0 -0.0961,-0.046 2.825,2.825 0 0 0 -0.18552,-0.0734 2.825,2.825 0 0 0 -0.11937,-0.0419 2.825,2.825 0 0 0 -0.1726,-0.046 2.825,2.825 0 0 0 -0.13901,-0.0315 2.825,2.825 0 0 0 -0.16536,-0.0253 2.825,2.825 0 0 0 -0.14883,-0.017 2.825,2.825 0 0 0 -0.16537,-0.006 2.825,2.825 0 0 0 -0.10128,-0.004 z M 14.750004,153.02167 a 2.825,2.825 0 0 0 -2.863391,2.78484 2.825,2.825 0 0 0 0.06925,0.65577 2.825,2.825 0 0 0 2.852539,2.64635 l 15.800586,-0.21755 0.250631,0.004 a 2.825,2.825 0 0 0 0.385506,-0.0238 2.825,2.825 0 0 0 2.53628,-2.8484 2.825,2.825 0 0 0 -2.863392,-2.78691 l -0.309541,0.004 z m 131.640546,0 a 2.825,2.825 0 0 0 -2.86339,2.78484 2.825,2.825 0 0 0 0.0692,0.65577 2.825,2.825 0 0 0 2.85306,2.64635 l 15.79903,-0.21755 0.2496,0.004 a 2.825,2.825 0 0 0 0.37621,-0.0222 2.825,2.825 0 0 0 2.54558,-2.84995 2.825,2.825 0 0 0 -2.86339,-2.78691 l -0.30851,0.004 z m -2.13372,14.94792 a 2.825,2.825 0 0 0 -2.55747,2.03812 2.825,2.825 0 0 0 -0.0987,1.00717 2.825,2.825 0 0 0 2.13372,2.94918 l 10.47895,2.59416 0.6382,0.18396 a 2.825,2.825 0 0 0 0.79323,0.10646 2.825,2.825 0 0 0 2.84737,-2.14251 2.825,2.825 0 0 0 -2.0624,-3.41994 l -0.77618,-0.19224 -10.45621,-3.0179 a 2.825,2.825 0 0 0 -0.94051,-0.10646 z m -111.414907,0.21188 a 2.825,2.825 0 0 0 -0.05478,0.004 2.825,2.825 0 0 0 -0.155546,0.0119 2.825,2.825 0 0 0 -0.159163,0.0181 2.825,2.825 0 0 0 -0.145728,0.0269 2.825,2.825 0 0 0 -0.111621,0.0212 l -11.338326,2.80655 a 2.825,2.825 0 0 0 -2.062407,3.42201 2.825,2.825 0 0 0 0.0863,0.27905 2.825,2.825 0 0 0 0.05839,0.25529 2.825,2.825 0 0 0 3.497978,1.93166 l 11.220504,-3.23856 a 2.825,2.825 0 0 0 0.0021,-5.2e-4 2.825,2.825 0 0 0 0.01447,-0.005 2.825,2.825 0 0 0 0.195854,-0.0651 2.825,2.825 0 0 0 0.01344,-0.006 2.825,2.825 0 0 0 1.705839,-3.42201 2.825,2.825 0 0 0 -0.05891,-0.16743 2.825,2.825 0 0 0 -0.0155,-0.0444 2.825,2.825 0 0 0 -0.103353,-0.23823 2.825,2.825 0 0 0 -0.02636,-0.0548 2.825,2.825 0 0 0 -0.130225,-0.22531 2.825,2.825 0 0 0 -0.02946,-0.046 2.825,2.825 0 0 0 -0.152446,-0.20774 2.825,2.825 0 0 0 -0.03772,-0.047 2.825,2.825 0 0 0 -0.172083,-0.18552 2.825,2.825 0 0 0 -0.04702,-0.0475 2.825,2.825 0 0 0 -0.182418,-0.1571 2.825,2.825 0 0 0 -0.06356,-0.0501 2.825,2.825 0 0 0 -0.187069,-0.12815 2.825,2.825 0 0 0 -0.07906,-0.0496 2.825,2.825 0 0 0 -0.191719,-0.10181 2.825,2.825 0 0 0 -0.09405,-0.045 2.825,2.825 0 0 0 -0.189135,-0.0744 2.825,2.825 0 0 0 -0.110588,-0.0382 2.825,2.825 0 0 0 -0.186552,-0.0501 2.825,2.825 0 0 0 -0.124023,-0.0284 2.825,2.825 0 0 0 -0.177767,-0.0269 2.825,2.825 0 0 0 -0.14211,-0.016 2.825,2.825 0 0 0 -0.160714,-0.006 2.825,2.825 0 0 0 -0.10542,-0.004 z m 5.75262,13.93351 a 2.825,2.825 0 0 0 -1.407149,0.39791 l -13.904061,8.28528 a 2.825,2.825 0 0 0 -0.982369,3.87263 2.825,2.825 0 0 0 1.734261,1.29295 2.825,2.825 0 0 0 2.138888,-0.31213 l 13.906128,-8.28528 a 2.825,2.825 0 0 0 0.980302,-3.87315 2.825,2.825 0 0 0 -2.466,-1.37821 z m 99.986147,0.19379 a 2.825,2.825 0 0 0 -2.42621,1.44642 2.825,2.825 0 0 0 1.08779,3.8437 l 14.12885,7.89822 a 2.825,2.825 0 0 0 3.8437,-1.08572 2.825,2.825 0 0 0 -1.08779,-3.84576 l -14.12886,-7.89874 a 2.825,2.825 0 0 0 -1.41748,-0.35812 z M 47.901986,194.091 a 2.825,2.825 0 0 0 -2.151807,0.86299 l -8.099764,8.41448 a 2.825,2.825 0 0 0 0.07596,3.99407 2.825,2.825 0 0 0 2.013831,0.7891 2.825,2.825 0 0 0 1.980758,-0.86558 l 8.099247,-8.41396 a 2.825,2.825 0 0 0 -0.07596,-3.99407 2.825,2.825 0 0 0 -1.842264,-0.78703 z m 81.638424,0.15709 a 2.825,2.825 0 0 0 -2.1518,0.86455 2.825,2.825 0 0 0 0.0765,3.99407 l 8.41395,8.0977 a 2.825,2.825 0 0 0 3.99408,-0.0765 2.825,2.825 0 0 0 -0.0765,-3.99408 l -8.41395,-8.09976 a 2.825,2.825 0 0 0 -1.84227,-0.786 z m -69.856198,9.03718 a 2.825,2.825 0 0 0 -2.426208,1.44642 l -7.90081,14.12885 a 2.825,2.825 0 0 0 1.088306,3.8437 2.825,2.825 0 0 0 2.146122,0.25166 2.825,2.825 0 0 0 1.697571,-1.3379 l 7.900293,-14.12886 a 2.825,2.825 0 0 0 -1.087789,-3.84576 2.825,2.825 0 0 0 -1.417485,-0.35811 z m 57.726708,0.11058 a 2.825,2.825 0 0 0 -1.40715,0.39791 2.825,2.825 0 0 0 -0.9803,3.87315 l 8.28528,13.90665 a 2.825,2.825 0 0 0 3.87315,0.9803 2.825,2.825 0 0 0 0.9803,-3.87315 l -8.28528,-13.90613 a 2.825,2.825 0 0 0 -2.466,-1.37873 z m -43.725495,5.68338 a 2.825,2.825 0 0 0 -2.792595,2.14664 l -2.807063,11.33574 a 2.825,2.825 0 0 0 2.062923,3.42201 2.825,2.825 0 0 0 3.421496,-2.06447 l 2.806547,-11.33626 a 2.825,2.825 0 0 0 -2.063956,-3.4215 2.825,2.825 0 0 0 -0.627352,-0.0822 z m 29.670545,0.0615 a 2.825,2.825 0 0 0 -0.62374,0.10646 2.825,2.825 0 0 0 -1.9296,3.49797 l 3.2365,11.22051 a 2.825,2.825 0 0 0 3.49798,1.93166 2.825,2.825 0 0 0 1.93166,-3.49798 l -3.23804,-11.2205 a 2.825,2.825 0 0 0 -2.87476,-2.03812 z m -14.822873,1.93477 a 2.825,2.825 0 0 0 -2.78691,2.86287 l 0.224793,16.18558 a 2.825,2.825 0 0 0 2.862874,2.78536 2.825,2.825 0 0 0 2.78536,-2.86339 l -0.222726,-16.18558 a 2.825,2.825 0 0 0 -2.863391,-2.78484 z" />
  </g>
</svg>
