<?xml version="1.0" encoding="UTF-8" standalone="no"?>
<!-- Created with Inkscape (http://www.inkscape.org/) -->

<svg
   width="153.47539mm"
   height="128.74641mm"
   viewBox="0 0 153.47539 128.74641"
   version="1.1"
   id="svg5"
   xmlns="http://www.w3.org/2000/svg"
   xmlns:svg="http://www.w3.org/2000/svg">
  <defs
     id="defs2" />
  <path
     id="path234"
     style="fill:#00a608;fill-opacity:0.530864;stroke:none;stroke-width:3.96899;stroke-linecap:round"
     d="M 76.889112,2.6461682e-4 A 2.825,2.825 0 0 0 74.025721,2.7856246 L 73.800928,18.971201 a 2.825,2.825 0 0 0 2.787427,2.863387 2.825,2.825 0 0 0 2.863391,-2.785356 L 79.673955,2.8636566 A 2.825,2.825 0 0 0 76.889112,2.6461682e-4 Z M 58.830783,6.8437746 a 2.825,2.825 0 0 0 -0.627352,0.08268 2.825,2.825 0 0 0 -2.062407,3.4214964 l 2.806547,11.336267 a 2.825,2.825 0 0 0 3.419947,2.06447 2.825,2.825 0 0 0 2.064473,-3.422018 L 61.625444,8.9909306 a 2.825,2.825 0 0 0 -2.794661,-2.147156 z m 35.820549,0.06201 a 2.825,2.825 0 0 0 -2.55746,2.038119 l -3.23598,11.2205034 a 2.825,2.825 0 0 0 1.9296,3.497981 2.825,2.825 0 0 0 3.49797,-1.93167 l 3.23857,-11.220502 a 2.825,2.825 0 0 0 -1.93167,-3.4979774 2.825,2.825 0 0 0 -0.94103,-0.106454 z m -54.734124,2.941423 a 2.825,2.825 0 0 0 -1.416967,0.3581174 2.825,2.825 0 0 0 -1.087789,3.84421 l 7.900293,14.128853 a 2.825,2.825 0 0 0 3.843693,1.08779 2.825,2.825 0 0 0 1.088305,-3.84576 L 42.343934,11.291566 A 2.825,2.825 0 0 0 40.64688,9.9536626 2.825,2.825 0 0 0 39.917208,9.8472096 Z m 73.912282,0.110587 a 2.825,2.825 0 0 0 -2.466,1.3787274 l -8.28476,13.906126 a 2.825,2.825 0 0 0 0.9803,3.87315 2.825,2.825 0 0 0 3.87315,-0.9803 l 8.28476,-13.906646 a 2.825,2.825 0 0 0 -0.9803,-3.873148 2.825,2.825 0 0 0 -1.40715,-0.3979094 z M 27.795468,24.758448 a 2.825,2.825 0 0 0 -2.013831,0.7891 2.825,2.825 0 0 0 -0.07596,3.99407 l 8.099247,8.41395 a 2.825,2.825 0 0 0 3.994071,0.076 2.825,2.825 0 0 0 0.07648,-3.99407 l -8.099764,-8.41396 a 2.825,2.825 0 0 0 -1.98024,-0.86506 z m 97.980582,0.15968 a 2.825,2.825 0 0 0 -1.84227,0.78755 l -8.41395,8.09769 a 2.825,2.825 0 0 0 -0.076,3.99407 2.825,2.825 0 0 0 3.99407,0.078 l 8.41396,-8.09976 a 2.825,2.825 0 0 0 0.076,-3.99407 2.825,2.825 0 0 0 -2.1518,-0.86351 z m -49.037833,2.42724 a 49.391922,49.391922 0 0 0 -49.391818,49.39182 49.391922,49.391922 0 0 0 8.37675,27.458272 h 82.030131 a 49.391922,49.391922 0 0 0 8.37675,-27.458272 49.391922,49.391922 0 0 0 -49.391813,-49.39182 z m 0.108003,8.54005 a 5.7525001,5.7525001 0 0 1 5.76554,5.74176 l 0.07131,34.52296 6.221842,-7.7494 a 5.7525001,5.7525001 0 0 1 8.08582,-0.88263 5.7525001,5.7525001 0 0 1 0.8847,8.08581 L 81.90896,95.491078 a 5.7525001,5.7525001 0 0 1 -4.931998,2.81585 5.7525001,5.7525001 0 0 1 -4.921664,-2.77399 L 56.055241,75.603918 a 5.7525001,5.7525001 0 0 1 0.884701,-8.08581 5.7525001,5.7525001 0 0 1 8.087878,0.88263 l 6.151046,7.66207 -0.07286,-34.41185 a 5.7525001,5.7525001 0 0 1 5.740218,-5.76554 z m -64.023999,0.97461 a 2.825,2.825 0 0 0 -0.732255,0.0858 2.825,2.825 0 0 0 -1.734261,1.29294 2.825,2.825 0 0 0 0.982369,3.87315 l 13.904578,8.28527 a 2.825,2.825 0 0 0 3.873148,-0.98082 2.825,2.825 0 0 0 -0.980818,-3.87315 l -13.906128,-8.28476 a 2.825,2.825 0 0 0 -1.406633,-0.39843 z m 128.021129,0.19379 a 2.825,2.825 0 0 0 -1.41697,0.35863 l -14.12937,7.89875 a 2.825,2.825 0 0 0 -1.08779,3.84369 2.825,2.825 0 0 0 3.84369,1.08779 l 14.12886,-7.89823 a 2.825,2.825 0 0 0 1.0883,-3.84576 2.825,2.825 0 0 0 -2.42672,-1.44487 z M 9.5712566,55.844918 a 2.825,2.825 0 0 0 -2.557467,2.03864 2.825,2.825 0 0 0 1.931665,3.49797 l 11.2210214,3.23598 a 2.825,2.825 0 0 0 3.497978,-1.9296 2.825,2.825 0 0 0 -1.931665,-3.49797 l -11.220504,-3.23805 a 2.825,2.825 0 0 0 -0.9410284,-0.10697 z m 134.1830234,0.21239 a 2.825,2.825 0 0 0 -0.62684,0.0816 l -11.33781,2.80706 a 2.825,2.825 0 0 0 -2.06292,3.4215 2.825,2.825 0 0 0 3.42201,2.06241 l 11.33626,-2.80655 a 2.825,2.825 0 0 0 2.06241,-3.41995 2.825,2.825 0 0 0 -2.79311,-2.14612 z M 2.8636556,73.801448 A 2.825,2.825 0 0 0 2.6460314e-4,76.586288 2.825,2.825 0 0 0 2.7856246,79.449678 l 16.1876424,0.22479 a 2.825,2.825 0 0 0 2.862874,-2.78742 2.825,2.825 0 0 0 -2.78691,-2.86288 z m 131.6405444,0 a 2.825,2.825 0 0 0 -2.86339,2.78484 2.825,2.825 0 0 0 2.78536,2.86339 l 16.18557,0.22479 a 2.825,2.825 0 0 0 2.86339,-2.78742 2.825,2.825 0 0 0 -2.78536,-2.86288 z m -2.13372,14.94792 a 2.825,2.825 0 0 0 -2.55747,2.03812 2.825,2.825 0 0 0 1.93167,3.49643 l 11.2205,3.23804 a 2.825,2.825 0 0 0 3.49798,-1.93166 2.825,2.825 0 0 0 -1.93167,-3.49591 l -11.2205,-3.23856 a 2.825,2.825 0 0 0 -0.94051,-0.10646 z m -111.414905,0.21188 a 2.825,2.825 0 0 0 -0.626835,0.0822 l -11.3383264,2.80655 a 2.825,2.825 0 0 0 -2.062407,3.42201 2.825,2.825 0 0 0 3.4220144,2.06241 l 11.335742,-2.80655 a 2.825,2.825 0 0 0 2.062406,-3.41995 2.825,2.825 0 0 0 -2.792594,-2.14663 z M 2.5411946,109.49643 a 1.975,1.975 0 0 0 -1.978174,1.973 1.975,1.975 0 0 0 1.97249,1.97663 l 148.4002394,0.22427 a 1.975,1.975 0 0 0 1.97663,-1.97249 1.975,1.975 0 0 0 -1.97043,-1.97869 z m 22.2110474,7.51168 a 1.975,1.975 0 0 0 -1.97869,1.97094 1.975,1.975 0 0 0 1.970939,1.97869 l 103.978669,0.22221 a 1.975,1.975 0 0 0 1.98024,-1.97042 1.975,1.975 0 0 0 -1.97043,-1.97869 z m 17.427877,7.5644 a 1.975,1.975 0 0 0 -1.982308,1.96887 1.975,1.975 0 0 0 1.968356,1.98231 l 69.131183,0.22272 a 1.975,1.975 0 0 0 1.98024,-1.96835 1.975,1.975 0 0 0 -1.96888,-1.98076 z" />
</svg>
